<svg width="375" height="300" viewBox="0 0 375 300" fill="none" xmlns="http://www.w3.org/2000/svg">
<g filter="url(#filter0_d_535_2530)">
<rect x="20" y="17.9167" width="335" height="228.917" rx="16.75" fill="white"/>
</g>
<rect x="75.2749" y="58.1167" width="0.558333" height="151.308" fill="#EEEEF7"/>
<rect x="110.45" y="58.1167" width="0.558333" height="151.308" fill="#EEEEF7"/>
<rect x="145.625" y="58.1167" width="0.558333" height="151.308" fill="#EEEEF7"/>
<rect x="180.8" y="58.1167" width="0.558333" height="151.308" fill="#EEEEF7"/>
<rect x="215.975" y="58.1167" width="0.558333" height="151.308" fill="#EEEEF7"/>
<rect x="251.15" y="58.1167" width="0.558333" height="151.308" fill="#EEEEF7"/>
<rect x="286.325" y="58.1167" width="0.558333" height="151.308" fill="#EEEEF7"/>
<rect x="321.5" y="58.1167" width="0.558333" height="151.308" fill="#EEEEF7"/>
<path d="M52.5984 69.4285L52.8405 67.0534H55.281V67.6129H53.3541L53.2102 68.9116C53.4435 68.7742 53.7085 68.7055 54.0051 68.7055C54.4391 68.7055 54.7837 68.8495 55.0389 69.1374C55.2941 69.4231 55.4217 69.8102 55.4217 70.2987C55.4217 70.7895 55.2886 71.1766 55.0226 71.4601C54.7587 71.7415 54.389 71.8821 53.9135 71.8821C53.4926 71.8821 53.1491 71.7655 52.883 71.5321C52.6169 71.2987 52.4654 70.9759 52.4283 70.5637H53.0008C53.0379 70.8364 53.1349 71.0425 53.2919 71.182C53.449 71.3194 53.6562 71.3881 53.9135 71.3881C54.1949 71.3881 54.4152 71.2922 54.5744 71.1003C54.7358 70.9083 54.8165 70.6433 54.8165 70.3053C54.8165 69.9869 54.7292 69.7317 54.5547 69.5398C54.3824 69.3457 54.1523 69.2486 53.8645 69.2486C53.6006 69.2486 53.3934 69.3064 53.2429 69.422L53.0826 69.5528L52.5984 69.4285ZM58.6376 70.217H59.2984V70.7109H58.6376V71.8167H58.0291V70.7109H55.8601V70.3544L57.9931 67.0534H58.6376V70.217ZM56.5471 70.217H58.0291V67.8811L57.9571 68.012L56.5471 70.217ZM61.1664 70.0403H59.5699V69.5463H61.1664V70.0403ZM64.0715 67.0502V67.5638H63.9603C63.4892 67.5725 63.114 67.7121 62.8349 67.9825C62.5557 68.253 62.3943 68.6336 62.3507 69.1243C62.6015 68.8364 62.9439 68.6924 63.3779 68.6924C63.7923 68.6924 64.1227 68.8386 64.3692 69.1308C64.6178 69.4231 64.7421 69.8004 64.7421 70.2628C64.7421 70.7535 64.608 71.1461 64.3397 71.4405C64.0737 71.7349 63.716 71.8821 63.2667 71.8821C62.8109 71.8821 62.4412 71.7077 62.1577 71.3587C61.8741 71.0076 61.7324 70.5561 61.7324 70.0043V69.772C61.7324 68.8953 61.9188 68.2257 62.2918 67.7633C62.6669 67.2988 63.2242 67.0611 63.9635 67.0502H64.0715ZM63.2765 69.1963C63.0693 69.1963 62.8785 69.2584 62.704 69.3827C62.5295 69.507 62.4085 69.663 62.3409 69.8505V70.073C62.3409 70.4656 62.4292 70.7818 62.6059 71.0217C62.7825 71.2616 63.0028 71.3816 63.2667 71.3816C63.5393 71.3816 63.7531 71.2813 63.9079 71.0806C64.0649 70.88 64.1435 70.6172 64.1435 70.2922C64.1435 69.9651 64.0639 69.7012 63.9046 69.5005C63.7476 69.2977 63.5382 69.1963 63.2765 69.1963ZM65.7367 69.4285L65.9788 67.0534H68.4193V67.6129H66.4924L66.3484 68.9116C66.5818 68.7742 66.8468 68.7055 67.1434 68.7055C67.5774 68.7055 67.922 68.8495 68.1772 69.1374C68.4324 69.4231 68.56 69.8102 68.56 70.2987C68.56 70.7895 68.4269 71.1766 68.1608 71.4601C67.8969 71.7415 67.5273 71.8821 67.0518 71.8821C66.6309 71.8821 66.2874 71.7655 66.0213 71.5321C65.7552 71.2987 65.6036 70.9759 65.5666 70.5637H66.1391C66.1761 70.8364 66.2732 71.0425 66.4302 71.182C66.5873 71.3194 66.7945 71.3881 67.0518 71.3881C67.3332 71.3881 67.5534 71.2922 67.7126 71.1003C67.874 70.9083 67.9547 70.6433 67.9547 70.3053C67.9547 69.9869 67.8675 69.7317 67.693 69.5398C67.5207 69.3457 67.2906 69.2486 67.0027 69.2486C66.7388 69.2486 66.5316 69.3064 66.3812 69.422L66.2209 69.5528L65.7367 69.4285Z" fill="#8794BA"/>
<path d="M54.8753 101.484H55.5362V101.978H54.8753V103.083H54.2668V101.978H52.0979V101.621L54.2309 98.3201H54.8753V101.484ZM52.7849 101.484H54.2668V99.1478L54.1949 99.2786L52.7849 101.484ZM56.3606 100.695L56.6027 98.3201H59.0432V98.8795H57.1163L56.9724 100.178C57.2057 100.041 57.4707 99.9722 57.7673 99.9722C58.2014 99.9722 58.5459 100.116 58.8011 100.404C59.0563 100.69 59.1839 101.077 59.1839 101.565C59.1839 102.056 59.0508 102.443 58.7848 102.727C58.5209 103.008 58.1512 103.149 57.6757 103.149C57.2548 103.149 56.9113 103.032 56.6452 102.799C56.3791 102.565 56.2276 102.243 56.1905 101.83H56.763C56.8001 102.103 56.8971 102.309 57.0542 102.449C57.2112 102.586 57.4184 102.655 57.6757 102.655C57.9571 102.655 58.1774 102.559 58.3366 102.367C58.498 102.175 58.5787 101.91 58.5787 101.572C58.5787 101.254 58.4914 100.998 58.3169 100.806C58.1446 100.612 57.9146 100.515 57.6267 100.515C57.3628 100.515 57.1556 100.573 57.0051 100.689L56.8448 100.82L56.3606 100.695ZM61.1664 101.307H59.5699V100.813H61.1664V101.307ZM61.9745 100.695L62.2166 98.3201H64.6571V98.8795H62.7302L62.5862 100.178C62.8196 100.041 63.0846 99.9722 63.3812 99.9722C63.8152 99.9722 64.1598 100.116 64.415 100.404C64.6702 100.69 64.7978 101.077 64.7978 101.565C64.7978 102.056 64.6647 102.443 64.3986 102.727C64.1347 103.008 63.7651 103.149 63.2896 103.149C62.8687 103.149 62.5252 103.032 62.2591 102.799C61.993 102.565 61.8414 102.243 61.8043 101.83H62.3769C62.4139 102.103 62.511 102.309 62.668 102.449C62.825 102.586 63.0322 102.655 63.2896 102.655C63.5709 102.655 63.7912 102.559 63.9504 102.367C64.1118 102.175 64.1925 101.91 64.1925 101.572C64.1925 101.254 64.1053 100.998 63.9308 100.806C63.7585 100.612 63.5284 100.515 63.2405 100.515C62.9766 100.515 62.7694 100.573 62.6189 100.689L62.4586 100.82L61.9745 100.695ZM68.0136 101.484H68.6745V101.978H68.0136V103.083H67.4051V101.978H65.2361V101.621L67.3691 98.3201H68.0136V101.484ZM65.9231 101.484H67.4051V99.1478L67.3332 99.2786L65.9231 101.484Z" fill="#8794BA"/>
<path d="M53.2003 131.674H53.6551C53.9408 131.67 54.1654 131.594 54.329 131.448C54.4926 131.302 54.5744 131.105 54.5744 130.856C54.5744 130.298 54.2963 130.019 53.7401 130.019C53.4784 130.019 53.269 130.094 53.112 130.244C52.9572 130.393 52.8797 130.59 52.8797 130.836H52.2745C52.2745 130.459 52.4119 130.146 52.6867 129.897C52.9637 129.647 53.3148 129.521 53.7401 129.521C54.1894 129.521 54.5417 129.64 54.7968 129.878C55.052 130.116 55.1796 130.446 55.1796 130.869C55.1796 131.076 55.112 131.277 54.9768 131.471C54.8437 131.665 54.6616 131.81 54.4304 131.906C54.6921 131.989 54.8939 132.126 55.0356 132.318C55.1796 132.51 55.2516 132.745 55.2516 133.022C55.2516 133.449 55.112 133.788 54.8328 134.039C54.5536 134.29 54.1905 134.415 53.7434 134.415C53.2963 134.415 52.9321 134.294 52.6507 134.052C52.3716 133.81 52.232 133.491 52.232 133.094H52.8405C52.8405 133.345 52.9223 133.545 53.0858 133.696C53.2494 133.846 53.4686 133.921 53.7434 133.921C54.0357 133.921 54.2592 133.845 54.4141 133.692C54.5689 133.54 54.6463 133.321 54.6463 133.035C54.6463 132.758 54.5613 132.545 54.3912 132.397C54.221 132.249 53.9757 132.172 53.6551 132.168H53.2003V131.674ZM56.3606 131.962L56.6027 129.587H59.0432V130.146H57.1163L56.9724 131.445C57.2057 131.307 57.4707 131.239 57.7673 131.239C58.2014 131.239 58.5459 131.383 58.8011 131.671C59.0563 131.956 59.1839 132.343 59.1839 132.832C59.1839 133.323 59.0508 133.71 58.7848 133.993C58.5209 134.275 58.1512 134.415 57.6757 134.415C57.2548 134.415 56.9113 134.299 56.6452 134.065C56.3791 133.832 56.2276 133.509 56.1905 133.097H56.763C56.8001 133.37 56.8971 133.576 57.0542 133.715C57.2112 133.853 57.4184 133.921 57.6757 133.921C57.9571 133.921 58.1774 133.825 58.3366 133.634C58.498 133.442 58.5787 133.177 58.5787 132.839C58.5787 132.52 58.4914 132.265 58.3169 132.073C58.1446 131.879 57.9146 131.782 57.6267 131.782C57.3628 131.782 57.1556 131.84 57.0051 131.955L56.8448 132.086L56.3606 131.962ZM61.1664 132.574H59.5699V132.08H61.1664V132.574ZM64.2514 132.75H64.9123V133.244H64.2514V134.35H63.6429V133.244H61.4739V132.888L63.6069 129.587H64.2514V132.75ZM62.1609 132.75H63.6429V130.414L63.5709 130.545L62.1609 132.75ZM68.0136 132.75H68.6745V133.244H68.0136V134.35H67.4051V133.244H65.2361V132.888L67.3691 129.587H68.0136V132.75ZM65.9231 132.75H67.4051V130.414L67.3332 130.545L65.9231 132.75Z" fill="#8794BA"/>
<path d="M55.4413 165.617H52.3203V165.182L53.9691 163.35C54.2134 163.073 54.3813 162.848 54.473 162.676C54.5667 162.501 54.6136 162.321 54.6136 162.136C54.6136 161.887 54.5384 161.683 54.3879 161.524C54.2374 161.365 54.0368 161.285 53.7859 161.285C53.485 161.285 53.2505 161.371 53.0826 161.544C52.9168 161.714 52.8339 161.952 52.8339 162.257H52.2287C52.2287 161.819 52.3694 161.464 52.6507 161.194C52.9343 160.923 53.3127 160.788 53.7859 160.788C54.2287 160.788 54.5787 160.905 54.8361 161.138C55.0934 161.369 55.2221 161.678 55.2221 162.064C55.2221 162.533 54.9233 163.091 54.3257 163.739L53.0499 165.123H55.4413V165.617ZM56.3606 163.229L56.6027 160.853H59.0432V161.413H57.1163L56.9724 162.712C57.2057 162.574 57.4707 162.506 57.7673 162.506C58.2014 162.506 58.5459 162.649 58.8011 162.937C59.0563 163.223 59.1839 163.61 59.1839 164.099C59.1839 164.589 59.0508 164.977 58.7848 165.26C58.5209 165.541 58.1512 165.682 57.6757 165.682C57.2548 165.682 56.9113 165.565 56.6452 165.332C56.3791 165.099 56.2276 164.776 56.1905 164.364H56.763C56.8001 164.636 56.8971 164.842 57.0542 164.982C57.2112 165.119 57.4184 165.188 57.6757 165.188C57.9571 165.188 58.1774 165.092 58.3366 164.9C58.498 164.708 58.5787 164.443 58.5787 164.105C58.5787 163.787 58.4914 163.532 58.3169 163.34C58.1446 163.146 57.9146 163.049 57.6267 163.049C57.3628 163.049 57.1556 163.106 57.0051 163.222L56.8448 163.353L56.3606 163.229ZM61.1664 163.84H59.5699V163.346H61.1664V163.84ZM62.5764 162.941H63.0312C63.3169 162.936 63.5415 162.861 63.7051 162.715C63.8687 162.569 63.9504 162.371 63.9504 162.123C63.9504 161.564 63.6724 161.285 63.1162 161.285C62.8545 161.285 62.6451 161.36 62.4881 161.511C62.3332 161.659 62.2558 161.857 62.2558 162.103H61.6506C61.6506 161.726 61.788 161.413 62.0628 161.164C62.3398 160.913 62.6909 160.788 63.1162 160.788C63.5655 160.788 63.9177 160.907 64.1729 161.145C64.4281 161.382 64.5557 161.713 64.5557 162.136C64.5557 162.343 64.4881 162.544 64.3528 162.738C64.2198 162.932 64.0377 163.077 63.8065 163.173C64.0682 163.256 64.27 163.393 64.4117 163.585C64.5557 163.777 64.6276 164.011 64.6276 164.288C64.6276 164.716 64.4881 165.055 64.2089 165.306C63.9297 165.557 63.5666 165.682 63.1195 165.682C62.6724 165.682 62.3082 165.561 62.0268 165.319C61.7476 165.077 61.6081 164.757 61.6081 164.36H62.2166C62.2166 164.611 62.2983 164.812 62.4619 164.962C62.6255 165.113 62.8447 165.188 63.1195 165.188C63.4117 165.188 63.6353 165.112 63.7901 164.959C63.945 164.806 64.0224 164.587 64.0224 164.302C64.0224 164.025 63.9374 163.812 63.7672 163.664C63.5971 163.515 63.3518 163.439 63.0312 163.435H62.5764V162.941ZM68.0136 164.017H68.6745V164.511H68.0136V165.617H67.4051V164.511H65.2361V164.154L67.3691 160.853H68.0136V164.017ZM65.9231 164.017H67.4051V161.681L67.3332 161.812L65.9231 164.017Z" fill="#8794BA"/>
<path d="M54.3094 196.883H53.7009V192.85L52.4806 193.298V192.748L54.2145 192.097H54.3094V196.883ZM58.9712 193.363C58.9712 193.601 58.908 193.812 58.7815 193.998C58.6572 194.183 58.4882 194.328 58.2744 194.433C58.523 194.54 58.7193 194.696 58.8633 194.901C59.0094 195.106 59.0825 195.338 59.0825 195.598C59.0825 196.01 58.9429 196.338 58.6637 196.582C58.3867 196.827 58.0214 196.949 57.5678 196.949C57.1098 196.949 56.7423 196.827 56.4653 196.582C56.1905 196.336 56.0531 196.008 56.0531 195.598C56.0531 195.34 56.1229 195.108 56.2625 194.901C56.4042 194.694 56.5994 194.537 56.848 194.43C56.6365 194.325 56.4696 194.18 56.3475 193.995C56.2254 193.809 56.1643 193.599 56.1643 193.363C56.1643 192.962 56.293 192.643 56.5503 192.408C56.8077 192.172 57.1468 192.055 57.5678 192.055C57.9865 192.055 58.3246 192.172 58.5819 192.408C58.8415 192.643 58.9712 192.962 58.9712 193.363ZM58.4772 195.585C58.4772 195.318 58.3922 195.101 58.2221 194.933C58.0541 194.766 57.8339 194.682 57.5612 194.682C57.2886 194.682 57.0694 194.764 56.9037 194.93C56.7401 195.096 56.6583 195.314 56.6583 195.585C56.6583 195.855 56.7379 196.068 56.8971 196.222C57.0585 196.377 57.2821 196.455 57.5678 196.455C57.8513 196.455 58.0738 196.377 58.2352 196.222C58.3966 196.065 58.4772 195.853 58.4772 195.585ZM57.5678 192.552C57.33 192.552 57.137 192.626 56.9887 192.774C56.8426 192.92 56.7695 193.12 56.7695 193.373C56.7695 193.615 56.8415 193.811 56.9855 193.962C57.1316 194.11 57.3257 194.184 57.5678 194.184C57.8099 194.184 58.0029 194.11 58.1468 193.962C58.293 193.811 58.366 193.615 58.366 193.373C58.366 193.131 58.2908 192.934 58.1403 192.781C57.9898 192.628 57.799 192.552 57.5678 192.552ZM61.1664 195.107H59.5699V194.613H61.1664V195.107ZM64.8174 196.883H61.6964V196.448L63.3452 194.616C63.5895 194.339 63.7574 194.115 63.849 193.942C63.9428 193.768 63.9897 193.588 63.9897 193.402C63.9897 193.154 63.9145 192.95 63.764 192.791C63.6135 192.631 63.4128 192.552 63.162 192.552C62.861 192.552 62.6266 192.638 62.4586 192.81C62.2929 192.98 62.21 193.218 62.21 193.523H61.6048C61.6048 193.085 61.7455 192.731 62.0268 192.46C62.3103 192.19 62.6887 192.055 63.162 192.055C63.6048 192.055 63.9548 192.171 64.2122 192.405C64.4695 192.636 64.5982 192.944 64.5982 193.33C64.5982 193.799 64.2994 194.358 63.7018 195.005L62.4259 196.389H64.8174V196.883ZM68.0136 195.284H68.6745V195.778H68.0136V196.883H67.4051V195.778H65.2361V195.421L67.3691 192.12H68.0136V195.284ZM65.9231 195.284H67.4051V192.948L67.3332 193.079L65.9231 195.284Z" fill="#8794BA"/>
<path d="M75.2749 62.025H218.487C220.183 62.025 221.558 63.3999 221.558 65.0959C221.558 66.7918 220.183 68.1667 218.487 68.1667H75.2749V62.025Z" fill="#EF2A82"/>
<path d="M75.2749 93.85H169.912C171.608 93.85 172.983 95.2249 172.983 96.9209C172.983 98.6168 171.608 99.9917 169.912 99.9917H75.2749V93.85Z" fill="#EF2A82"/>
<path d="M75.2749 125.675H81.1374C82.8334 125.675 84.2082 127.05 84.2082 128.746C84.2082 130.442 82.8334 131.817 81.1374 131.817H75.2749V125.675Z" fill="#EF2A82"/>
<path d="M75.2749 157.5H99.0041C100.7 157.5 102.075 158.875 102.075 160.571C102.075 162.267 100.7 163.642 99.0041 163.642H75.2749V157.5Z" fill="#EF2A82"/>
<path d="M75.2749 189.325H188.337C190.033 189.325 191.408 190.7 191.408 192.396C191.408 194.092 190.033 195.467 188.337 195.467H75.2749V189.325Z" fill="#EF2A82"/>
<path d="M75.2749 69.8417H154.837C156.533 69.8417 157.908 71.2165 157.908 72.9125C157.908 74.6085 156.533 75.9833 154.837 75.9833H75.2749V69.8417Z" fill="#0088F0"/>
<path d="M75.2749 101.667H188.337C190.033 101.667 191.408 103.042 191.408 104.738C191.408 106.433 190.033 107.808 188.337 107.808H75.2749V101.667Z" fill="#0088F0"/>
<path d="M75.2749 133.492H99.0041C100.7 133.492 102.075 134.867 102.075 136.563C102.075 138.259 100.7 139.633 99.0041 139.633H75.2749V133.492Z" fill="#0088F0"/>
<path d="M75.2749 165.317H261.479C263.175 165.317 264.55 166.692 264.55 168.387C264.55 170.083 263.175 171.458 261.479 171.458H75.2749V165.317Z" fill="#0088F0"/>
<path d="M75.2749 197.142H293.304C295 197.142 296.375 198.517 296.375 200.212C296.375 201.908 295 203.283 293.304 203.283H75.2749V197.142Z" fill="#0088F0"/>
<defs>
<filter id="filter0_d_535_2530" x="-15" y="0.916687" width="405" height="298.917" filterUnits="userSpaceOnUse" color-interpolation-filters="sRGB">
<feFlood flood-opacity="0" result="BackgroundImageFix"/>
<feColorMatrix in="SourceAlpha" type="matrix" values="0 0 0 0 0 0 0 0 0 0 0 0 0 0 0 0 0 0 127 0" result="hardAlpha"/>
<feMorphology radius="15" operator="erode" in="SourceAlpha" result="effect1_dropShadow_535_2530"/>
<feOffset dy="18"/>
<feGaussianBlur stdDeviation="25"/>
<feColorMatrix type="matrix" values="0 0 0 0 0.0996452 0 0 0 0 0.164326 0 0 0 0 0.350284 0 0 0 0.2 0"/>
<feBlend mode="normal" in2="BackgroundImageFix" result="effect1_dropShadow_535_2530"/>
<feBlend mode="normal" in="SourceGraphic" in2="effect1_dropShadow_535_2530" result="shape"/>
</filter>
</defs>
</svg>
